<svg width="57" height="58" viewBox="0 0 57 58" fill="none" xmlns="http://www.w3.org/2000/svg">
<path d="M46.9538 27.1875H37.3587C32.585 27.1875 30.2812 25.0366 30.2812 20.59V9.61831C30.2812 5.17165 32.6087 3.02081 37.3587 3.02081H46.9538C51.7275 3.02081 54.0312 5.17165 54.0312 9.61831V20.5658C54.0312 25.0366 51.7038 27.1875 46.9538 27.1875ZM37.3587 6.64581C34.1762 6.64581 33.8438 7.56415 33.8438 9.61831V20.5658C33.8438 22.6441 34.1762 23.5383 37.3587 23.5383H46.9538C50.1363 23.5383 50.4688 22.62 50.4688 20.5658V9.61831C50.4688 7.53998 50.1363 6.64581 46.9538 6.64581H37.3587Z" fill="#171717" fill-opacity="0.49"/>
<path d="M46.9538 54.9792H37.3587C32.585 54.9792 30.2812 52.6108 30.2812 47.7775V38.0142C30.2812 33.1567 32.6087 30.8125 37.3587 30.8125H46.9538C51.7275 30.8125 54.0312 33.1808 54.0312 38.0142V47.7775C54.0312 52.6108 51.7038 54.9792 46.9538 54.9792ZM37.3587 34.4375C34.5562 34.4375 33.8438 35.1625 33.8438 38.0142V47.7775C33.8438 50.6292 34.5562 51.3542 37.3587 51.3542H46.9538C49.7563 51.3542 50.4688 50.6292 50.4688 47.7775V38.0142C50.4688 35.1625 49.7563 34.4375 46.9538 34.4375H37.3587Z" fill="#171717" fill-opacity="0.49"/>
<path d="M19.6413 27.1875H10.0463C5.2725 27.1875 2.96875 25.0366 2.96875 20.59V9.61831C2.96875 5.17165 5.29625 3.02081 10.0463 3.02081H19.6413C24.415 3.02081 26.7188 5.17165 26.7188 9.61831V20.5658C26.7188 25.0366 24.3913 27.1875 19.6413 27.1875ZM10.0463 6.64581C6.86375 6.64581 6.53125 7.56415 6.53125 9.61831V20.5658C6.53125 22.6441 6.86375 23.5383 10.0463 23.5383H19.6413C22.8238 23.5383 23.1562 22.62 23.1562 20.5658V9.61831C23.1562 7.53998 22.8238 6.64581 19.6413 6.64581H10.0463Z" fill="#171717" fill-opacity="0.49"/>
<path d="M19.6413 54.9792H10.0463C5.2725 54.9792 2.96875 52.6108 2.96875 47.7775V38.0142C2.96875 33.1567 5.29625 30.8125 10.0463 30.8125H19.6413C24.415 30.8125 26.7188 33.1808 26.7188 38.0142V47.7775C26.7188 52.6108 24.3913 54.9792 19.6413 54.9792ZM10.0463 34.4375C7.24375 34.4375 6.53125 35.1625 6.53125 38.0142V47.7775C6.53125 50.6292 7.24375 51.3542 10.0463 51.3542H19.6413C22.4438 51.3542 23.1562 50.6292 23.1562 47.7775V38.0142C23.1562 35.1625 22.4438 34.4375 19.6413 34.4375H10.0463Z" fill="#171717" fill-opacity="0.49"/>
</svg>
