<svg width="27" height="25" viewBox="0 0 27 25" fill="none" xmlns="http://www.w3.org/2000/svg">
<path d="M17.145 23.198H16.9987C12.0037 23.198 9.59624 21.375 9.17999 17.2917C9.13499 16.8646 9.47249 16.4792 9.94499 16.4375C10.4062 16.3959 10.8225 16.7188 10.8675 17.1459C11.1937 20.4167 12.8587 21.6355 17.01 21.6355H17.1562C21.735 21.6355 23.355 20.1355 23.355 15.8959V9.10421C23.355 4.86462 21.735 3.36462 17.1562 3.36462H17.01C12.8362 3.36462 11.1712 4.60421 10.8675 7.93754C10.8112 8.36462 10.4287 8.68754 9.94499 8.64587C9.47249 8.61462 9.13499 8.22921 9.16874 7.80212C9.55124 3.65629 11.97 1.80212 16.9987 1.80212H17.145C22.6687 1.80212 25.0312 3.98962 25.0312 9.10421V15.8959C25.0312 21.0105 22.6687 23.198 17.145 23.198Z" fill="#171717"/>
<path d="M16.74 13.2812H2.25C1.78875 13.2812 1.40625 12.9271 1.40625 12.5C1.40625 12.0729 1.78875 11.7188 2.25 11.7188H16.74C17.2013 11.7188 17.5838 12.0729 17.5838 12.5C17.5838 12.9271 17.2125 13.2812 16.74 13.2812Z" fill="#171717"/>
<path d="M14.2313 16.7709C14.0175 16.7709 13.8038 16.698 13.635 16.5417C13.3088 16.2396 13.3088 15.7396 13.635 15.4375L16.8075 12.5L13.635 9.56254C13.3088 9.26046 13.3088 8.76046 13.635 8.45837C13.9613 8.15629 14.5013 8.15629 14.8275 8.45837L18.5963 11.948C18.9225 12.25 18.9225 12.75 18.5963 13.0521L14.8275 16.5417C14.6588 16.698 14.445 16.7709 14.2313 16.7709Z" fill="#171717"/>
</svg>
