<svg width="27" height="25" viewBox="0 0 27 25" fill="none" xmlns="http://www.w3.org/2000/svg">
<path d="M17.145 23.1978H16.9987C12.0037 23.1978 9.59624 21.3749 9.17999 17.2916C9.13499 16.8645 9.47249 16.4791 9.94499 16.4374C10.395 16.3958 10.8225 16.7187 10.8675 17.1458C11.1937 20.4166 12.8587 21.6353 17.01 21.6353H17.1562C21.735 21.6353 23.355 20.1353 23.355 15.8958V9.10408C23.355 4.8645 21.735 3.3645 17.1562 3.3645H17.01C12.8362 3.3645 11.1712 4.60408 10.8675 7.93742C10.8112 8.3645 10.4175 8.68742 9.94499 8.64575C9.47249 8.6145 9.13499 8.22908 9.16874 7.802C9.55124 3.65617 11.97 1.802 16.9987 1.802H17.145C22.6687 1.802 25.0312 3.9895 25.0312 9.10408V15.8958C25.0312 21.0103 22.6687 23.1978 17.145 23.1978Z" fill="#171717"/>
<path d="M16.875 13.2812H4.07251C3.61126 13.2812 3.22876 12.9271 3.22876 12.5C3.22876 12.0729 3.61126 11.7188 4.07251 11.7188H16.875C17.3363 11.7188 17.7188 12.0729 17.7188 12.5C17.7188 12.9271 17.3363 13.2812 16.875 13.2812Z" fill="#171717"/>
<path d="M6.58124 16.7709C6.36749 16.7709 6.15375 16.698 5.985 16.5417L2.21625 13.0521C1.89 12.75 1.89 12.25 2.21625 11.948L5.985 8.45837C6.31125 8.15629 6.85125 8.15629 7.1775 8.45837C7.50375 8.76046 7.50375 9.26046 7.1775 9.56254L4.00499 12.5L7.1775 15.4375C7.50375 15.7396 7.50375 16.2396 7.1775 16.5417C7.02 16.698 6.79499 16.7709 6.58124 16.7709Z" fill="#171717"/>
</svg>
