<svg width="58" height="58" viewBox="0 0 58 58" fill="none" xmlns="http://www.w3.org/2000/svg">
<path d="M50.75 48.9375H26.5834C25.5925 48.9375 24.7709 48.1158 24.7709 47.125C24.7709 46.1342 25.5925 45.3125 26.5834 45.3125H50.75C51.7409 45.3125 52.5625 46.1342 52.5625 47.125C52.5625 48.1158 51.7409 48.9375 50.75 48.9375Z" fill="white"/>
<path d="M50.75 32.0208H26.5834C25.5925 32.0208 24.7709 31.1991 24.7709 30.2083C24.7709 29.2175 25.5925 28.3958 26.5834 28.3958H50.75C51.7409 28.3958 52.5625 29.2175 52.5625 30.2083C52.5625 31.1991 51.7409 32.0208 50.75 32.0208Z" fill="white"/>
<path d="M50.75 15.1042H26.5834C25.5925 15.1042 24.7709 14.2825 24.7709 13.2917C24.7709 12.3009 25.5925 11.4792 26.5834 11.4792H50.75C51.7409 11.4792 52.5625 12.3009 52.5625 13.2917C52.5625 14.2825 51.7409 15.1042 50.75 15.1042Z" fill="white"/>
<path d="M9.66667 17.5208C9.2075 17.5208 8.74833 17.3516 8.38583 16.9891L5.96917 14.5725C5.26833 13.8716 5.26833 12.7116 5.96917 12.0108C6.67 11.31 7.83 11.31 8.53083 12.0108L9.66667 13.1466L15.6358 7.17748C16.3367 6.47665 17.4967 6.47665 18.1975 7.17748C18.8983 7.87831 18.8983 9.03831 18.1975 9.73915L10.9475 16.9891C10.585 17.3516 10.1258 17.5208 9.66667 17.5208Z" fill="white"/>
<path d="M9.66667 34.4375C9.2075 34.4375 8.74833 34.2683 8.38583 33.9058L5.96917 31.4892C5.26833 30.7883 5.26833 29.6283 5.96917 28.9275C6.67 28.2267 7.83 28.2267 8.53083 28.9275L9.66667 30.0633L15.6358 24.0942C16.3367 23.3933 17.4967 23.3933 18.1975 24.0942C18.8983 24.795 18.8983 25.955 18.1975 26.6558L10.9475 33.9058C10.585 34.2683 10.1258 34.4375 9.66667 34.4375Z" fill="white"/>
<path d="M9.66667 51.3542C9.2075 51.3542 8.74833 51.185 8.38583 50.8225L5.96917 48.4059C5.26833 47.705 5.26833 46.545 5.96917 45.8442C6.67 45.1434 7.83 45.1434 8.53083 45.8442L9.66667 46.98L15.6358 41.0109C16.3367 40.31 17.4967 40.31 18.1975 41.0109C18.8983 41.7117 18.8983 42.8717 18.1975 43.5725L10.9475 50.8225C10.585 51.185 10.1258 51.3542 9.66667 51.3542Z" fill="white"/>
</svg>
