<svg width="80" height="97" viewBox="0 0 80 97" fill="none" xmlns="http://www.w3.org/2000/svg">
<path d="M64.5372 23.034L43.8119 9.49226C41.6302 8.04994 38.9859 8.04994 36.8042 9.49226L16.0789 23.034C14.5583 24.0356 13.6328 25.9587 13.6328 28.1622C13.6328 30.3256 14.5583 32.2888 16.0789 33.2904L36.8042 46.8321C37.895 47.5533 39.1181 47.9138 40.3081 47.9138C41.498 47.9138 42.7211 47.5533 43.8119 46.8321L64.5372 33.2904C66.0578 32.2888 66.9833 30.3657 66.9833 28.1622C66.9833 25.9587 66.0578 24.0356 64.5372 23.034Z" fill="#FFF8F8"/>
<path opacity="0.4" d="M33.3993 51.5196L14.0953 39.8208C12.6078 38.9394 10.889 39.0195 9.50066 40.0612C8.0793 41.1429 7.25293 42.9458 7.25293 44.949V67.0244C7.25293 70.8305 9.00484 74.276 11.8145 75.9988L31.0855 87.6975C31.7466 88.0982 32.4738 88.2985 33.201 88.2985C34.0604 88.2985 34.9198 88.0181 35.6801 87.4572C37.1014 86.4155 37.9278 84.5725 37.9278 82.5693V60.4939C37.9609 56.6478 36.209 53.2023 33.3993 51.5196Z" fill="#FFF8F8"/>
<path opacity="0.4" d="M71.1151 40.0612C69.6938 39.0195 67.9749 38.8993 66.5205 39.8208L47.2496 51.5195C44.4399 53.2423 42.688 56.6478 42.688 60.4939V82.5693C42.688 84.5725 43.5144 86.4155 44.9357 87.4571C45.696 88.018 46.5554 88.2985 47.4148 88.2985C48.142 88.2985 48.8692 88.0982 49.5303 87.6975L68.8013 75.9988C71.611 74.276 73.3629 70.8706 73.3629 67.0244V44.949C73.3629 42.9458 72.5365 41.1429 71.1151 40.0612Z" fill="#FFF8F8"/>
</svg>
